<?xml version="1.0" encoding="UTF-8"?>
<svg id="Layer_1" xmlns="http://www.w3.org/2000/svg" viewBox="0 0 612 792">
  <defs>
    <style>
      .cls-1 {
        fill: none;
        stroke: #ec008c;
        stroke-miterlimit: 10;
        stroke-width: 2px;
      }
    </style>
  </defs>
  <path class="cls-1" d="M34.4,477.76h2.15v-23.85s.86,0,.86,0l17.77,20.58v-23.96s-18.27-41.98-18.27-41.98c0,0,0-266.75,0-306.19S28.12,6.52,28.12,6.52c0,0-8.79,56.41-8.79,95.85s0,306.19,0,306.19L1.06,450.53v23.96s17.77-20.58,17.77-20.58h.86s0,23.85,0,23.85h2.15s0,1.23,0,1.23h6.28s6.28,0,6.28,0v-1.23Z"/>
  <line class="cls-1" x1="30.71" y1="24.95" x2="25.53" y2="24.95"/>
</svg>